{
	"asset":{
		"generator":"Khronos glTF Blender I/O v3.6.27",
		"version":"2.0"
	},
	"scene":0,
	"scenes":[
		{
			"name":"Scene",
			"nodes":[
				0
			]
		}
	],
	"nodes":[
		{
			"mesh":0,
			"name":"defaultMaterial"
		}
	],
	"materials":[
		{
			"doubleSided":true,
			"name":"Hands_Low_defaultMat1",
			"normalTexture":{
				"index":0
			},
			"occlusionTexture":{
				"index":1
			},
			"pbrMetallicRoughness":{
				"baseColorTexture":{
					"index":2
				},
				"metallicRoughnessTexture":{
					"index":1
				}
			}
		}
	],
	"meshes":[
		{
			"name":"defaultMaterial",
			"primitives":[
				{
					"attributes":{
						"POSITION":0,
						"NORMAL":1,
						"TEXCOORD_0":2
					},
					"indices":3,
					"material":0
				}
			]
		}
	],
	"textures":[
		{
			"sampler":0,
			"source":0
		},
		{
			"sampler":0,
			"source":1
		},
		{
			"sampler":0,
			"source":2
		}
	],
	"images":[
		{
			"mimeType":"image/png",
			"name":"Hands_Low_defaultMat1_normal",
			"uri":"textures/Hands_Low_defaultMat1_normal.png"
		},
		{
			"mimeType":"image/png",
			"name":"Hands_Low_defaultMat1_metallicRoughness",
			"uri":"textures/Hands_Low_defaultMat1_metallicRoughness.png"
		},
		{
			"mimeType":"image/jpeg",
			"name":"Hands_Low_defaultMat1_baseColor",
			"uri":"textures/Hands_Low_defaultMat1_baseColor.jpg"
		}
	],
	"accessors":[
		{
			"bufferView":0,
			"componentType":5126,
			"count":70774,
			"max":[
				0.6790469884872437,
				1,
				0.5720769762992859
			],
			"min":[
				-0.6790469884872437,
				-1,
				-0.5720769762992859
			],
			"type":"VEC3"
		},
		{
			"bufferView":1,
			"componentType":5126,
			"count":70774,
			"type":"VEC3"
		},
		{
			"bufferView":2,
			"componentType":5126,
			"count":70774,
			"type":"VEC2"
		},
		{
			"bufferView":3,
			"componentType":5125,
			"count":412224,
			"type":"SCALAR"
		}
	],
	"bufferViews":[
		{
			"buffer":0,
			"byteLength":849288,
			"byteOffset":0,
			"target":34962
		},
		{
			"buffer":0,
			"byteLength":849288,
			"byteOffset":849288,
			"target":34962
		},
		{
			"buffer":0,
			"byteLength":566192,
			"byteOffset":1698576,
			"target":34962
		},
		{
			"buffer":0,
			"byteLength":1648896,
			"byteOffset":2264768,
			"target":34963
		}
	],
	"samplers":[
		{
			"magFilter":9729,
			"minFilter":9987
		}
	],
	"buffers":[
		{
			"byteLength":3913664,
			"uri":"scene.bin"
		}
	]
}
